<svg width="56" height="56" viewBox="0 0 56 56" fill="none" xmlns="http://www.w3.org/2000/svg">
<path fill-rule="evenodd" clip-rule="evenodd" d="M55 28C55 42.9117 42.9117 55 28 55C13.0883 55 1 42.9117 1 28C1 13.0883 13.0883 1 28 1C42.9117 1 55 13.0883 55 28ZM56 28C56 43.464 43.464 56 28 56C12.536 56 0 43.464 0 28C0 12.536 12.536 0 28 0C43.464 0 56 12.536 56 28ZM27.7967 38.36C24.4967 38.36 22.6067 37.04 21.3167 35L22.0967 34.43C23.3867 36.38 25.0667 37.46 27.7967 37.46C30.8567 37.46 33.1967 35.15 33.1967 32.06C33.1967 28.67 30.8567 26.6 27.7967 26.6C25.9367 26.6 24.2867 27.23 22.7567 28.67L21.9467 28.19V17.99H32.8667V18.89H22.9067V27.62C23.8967 26.66 25.6367 25.7 27.7967 25.7C31.1267 25.7 34.1567 27.86 34.1567 32.06C34.1567 35.96 31.1267 38.36 27.7967 38.36Z" fill="#A0A0AA"/>
</svg>
