<svg width="57" height="57" viewBox="0 0 57 57" fill="none" xmlns="http://www.w3.org/2000/svg">
<path fill-rule="evenodd" clip-rule="evenodd" d="M55.5 28.4287C55.5 43.3404 43.4117 55.4287 28.5 55.4287C13.5883 55.4287 1.5 43.3404 1.5 28.4287C1.5 13.517 13.5883 1.42871 28.5 1.42871C43.4117 1.42871 55.5 13.517 55.5 28.4287ZM56.5 28.4287C56.5 43.8927 43.964 56.4287 28.5 56.4287C13.036 56.4287 0.5 43.8927 0.5 28.4287C0.5 12.9647 13.036 0.428711 28.5 0.428711C43.964 0.428711 56.5 12.9647 56.5 28.4287ZM30.6838 32.5787V38.4287H29.7238V32.5787H20.2738V31.5887L29.4238 18.4187H30.6838V31.6787H33.7138V32.5787H30.6838ZM21.3238 31.6787H29.7238V19.4987L21.3238 31.6787Z" fill="#A0A0AA"/>
</svg>
