<svg width="57" height="57" viewBox="0 0 57 57" fill="none" xmlns="http://www.w3.org/2000/svg">
<path fill-rule="evenodd" clip-rule="evenodd" d="M55.5 28.4287C55.5 43.3404 43.4117 55.4287 28.5 55.4287C13.5883 55.4287 1.5 43.3404 1.5 28.4287C1.5 13.517 13.5883 1.42871 28.5 1.42871C43.4117 1.42871 55.5 13.517 55.5 28.4287ZM56.5 28.4287C56.5 43.8927 43.964 56.4287 28.5 56.4287C13.036 56.4287 0.5 43.8927 0.5 28.4287C0.5 12.9647 13.036 0.428711 28.5 0.428711C43.964 0.428711 56.5 12.9647 56.5 28.4287ZM29.5098 18.4187V38.4287H28.5498V19.7987L25.3998 23.2487L24.7398 22.5587L28.6098 18.4187H29.5098Z" fill="#7E7E81"/>
</svg>
