<svg width="57" height="57" viewBox="0 0 57 57" fill="none" xmlns="http://www.w3.org/2000/svg">
<path fill-rule="evenodd" clip-rule="evenodd" d="M55.5 28.4287C55.5 43.3404 43.4117 55.4287 28.5 55.4287C13.5883 55.4287 1.5 43.3404 1.5 28.4287C1.5 13.517 13.5883 1.42871 28.5 1.42871C43.4117 1.42871 55.5 13.517 55.5 28.4287ZM56.5 28.4287C56.5 43.8927 43.964 56.4287 28.5 56.4287C13.036 56.4287 0.5 43.8927 0.5 28.4287C0.5 12.9647 13.036 0.428711 28.5 0.428711C43.964 0.428711 56.5 12.9647 56.5 28.4287ZM28.5912 38.7887C25.4412 38.7887 23.1612 37.2287 22.1112 35.4287L22.9513 34.9487C23.9713 36.5987 25.8612 37.8887 28.5912 37.8887C31.8913 37.8887 34.0213 36.0887 34.0213 33.1187C34.0213 29.8487 31.2913 28.5287 28.2313 28.5287C27.4213 28.5287 26.8512 28.5287 26.5513 28.5587V27.5987C26.8512 27.6287 27.3913 27.6287 28.2313 27.6287C31.0212 27.6287 33.7212 26.3687 33.7212 23.3387C33.7212 20.5787 31.3213 19.0187 28.5912 19.0187C26.1912 19.0187 24.6313 19.9487 23.1313 21.7187L22.3813 21.1187C23.7013 19.4387 25.8313 18.1187 28.5912 18.1187C31.7113 18.1187 34.6813 19.9487 34.6813 23.3387C34.6813 26.5787 31.9813 27.8087 30.4213 28.0787C32.0713 28.2287 34.9813 29.6987 34.9813 33.1187C34.9813 36.3587 32.6712 38.7887 28.5912 38.7887Z" fill="#A0A0AA"/>
</svg>
