<svg width="56" height="56" viewBox="0 0 56 56" fill="none" xmlns="http://www.w3.org/2000/svg">
<path fill-rule="evenodd" clip-rule="evenodd" d="M55 28C55 42.9117 42.9117 55 28 55C13.0883 55 1 42.9117 1 28C1 13.0883 13.0883 1 28 1C42.9117 1 55 13.0883 55 28ZM56 28C56 43.464 43.464 56 28 56C12.536 56 0 43.464 0 28C0 12.536 12.536 0 28 0C43.464 0 56 12.536 56 28ZM34.2428 36.1V37H21.6128V36.16C28.0028 30.85 33.2228 26.41 33.2228 22.12C33.2228 18.88 30.6128 17.59 28.2428 17.59C25.6928 17.59 23.7428 18.7 22.7228 20.29L21.9428 19.72C23.1728 17.89 25.4528 16.69 28.2728 16.69C30.8228 16.69 34.1828 18.16 34.1828 22.12C34.1828 26.8 28.9628 31.15 23.0228 36.1H34.2428Z" fill="#A0A0AA"/>
</svg>
