<svg width="23" height="14" viewBox="0 0 23 14" fill="none" xmlns="http://www.w3.org/2000/svg">
<path d="M18.6566 8.02464C18.2931 7.5656 18.3971 7.36138 18.6566 6.95106C18.6613 6.94637 21.6619 2.80004 21.9711 1.39388L21.9729 1.39294C22.1266 0.880505 21.9729 0.503906 21.2301 0.503906H18.7719C18.1461 0.503906 17.8575 0.827107 17.703 1.18872C17.703 1.18872 16.4514 4.18465 14.6808 6.12666C14.1093 6.68781 13.8452 6.86768 13.5332 6.86768C13.3796 6.86768 13.1407 6.68781 13.1407 6.17537V1.39294C13.1407 0.778392 12.9655 0.503906 12.4474 0.503906H8.58214C8.18962 0.503906 7.95635 0.790571 7.95635 1.05756C7.95635 1.64026 8.84164 1.77422 8.93345 3.41365V6.97073C8.93345 7.75016 8.79199 7.89349 8.47816 7.89349C7.64252 7.89349 5.61432 4.88538 4.41239 1.44259C4.16975 0.774645 3.93274 0.504843 3.30227 0.504843H0.843132C0.141459 0.504843 0 0.828043 0 1.18965C0 1.82856 0.835637 5.00529 3.8859 9.20222C5.91878 12.067 8.78169 13.6193 11.386 13.6193C12.9514 13.6193 13.1426 13.2745 13.1426 12.6815C13.1426 9.94417 13.0011 9.68561 13.7852 9.68561C14.1487 9.68561 14.7745 9.86548 16.2359 11.2473C17.9062 12.8858 18.1807 13.6193 19.1157 13.6193H21.5739C22.2746 13.6193 22.6297 13.2745 22.4254 12.5944C21.958 11.1639 18.799 8.22137 18.6566 8.02464Z" fill="white"/>
</svg>
