<svg width="22" height="16" viewBox="0 0 22 16" fill="none" xmlns="http://www.w3.org/2000/svg">
<path d="M21.4038 2.89819C21.152 1.96195 20.4138 1.22393 19.4777 0.971826C17.7676 0.503906 10.9269 0.503906 10.9269 0.503906C10.9269 0.503906 4.08641 0.503906 2.37627 0.954085C1.45817 1.20592 0.702001 1.96209 0.450168 2.89819C0.00012207 4.6082 0.00012207 8.15455 0.00012207 8.15455C0.00012207 8.15455 0.00012207 11.7188 0.450168 13.4109C0.702268 14.347 1.44016 15.085 2.3764 15.3371C4.10442 15.8052 10.9271 15.8052 10.9271 15.8052C10.9271 15.8052 17.7676 15.8052 19.4777 15.355C20.414 15.103 21.152 14.365 21.4041 13.4289C21.854 11.7188 21.854 8.17255 21.854 8.17255C21.854 8.17255 21.872 4.6082 21.4038 2.89819ZM8.74893 11.4308V4.87831L14.4373 8.15455L8.74893 11.4308Z" fill="white"/>
</svg>
